 <svg xmlns="http://www.w3.org/2000/svg" version="1.1" xmlns:xlink="http://www.w3.org/1999/xlink" xmlns:svgjs="http://svgjs.dev/svgjs" viewBox="0 0 1422 800"><defs><linearGradient x1="50%" y1="0%" x2="50%" y2="100%" id="ccchaos-grad"><stop stop-color="#ff8711" stop-opacity="1" offset="0%"></stop><stop stop-color="#ffc621" stop-opacity="1" offset="100%"></stop></linearGradient></defs><g stroke-width="2" stroke="url(#ccchaos-grad)" fill="none" stroke-linecap="round"><path d="M686.01 16.33C691.81 5.87 701.34 -0.89 710.24 -2.66 719.14 -3.96 727.36 -0.12 730.6 8.86Q734.71 20.28 738.96 31.96 743.44 43.93 748.2 56.17 753.28 68.67 758.73 81.42 764.56 94.4 770.77 107.56 777.36 120.89 784.29 134.33 791.51 147.84 798.98 161.37 806.61 174.87 814.34 188.28 822.06 201.55 829.71 214.64 837.18 227.5 844.41 240.08 851.32 252.36 857.86 264.31 863.98 275.9 869.65 287.13 874.88 297.99 879.66 308.5 884.05 318.67 888.07 328.52 891.81 338.11 895.34 347.47 898.75 356.65 902.15 365.71 905.62 374.71 909.27 383.72 913.18 392.81 917.45 402.03 922.14 411.46 927.31 421.15 932.97 431.16 939.15 441.53 945.84 452.31 952.99 463.51 960.56 475.17 968.47 487.28 976.63 499.85 984.95 512.85 993.31 526.26 1001.6 540.03 1009.71 554.12 1017.53 568.47 1024.97 583.01 1031.95 597.66 1038.41 612.36 1044.3 627.01 1049.62 641.54 1054.37 655.88 1058.58 669.93 1062.31 683.65 1065.64 696.95 1068.67 709.8 1071.5 722.14 1074.26 733.96 1077.08 745.23 1080.08 755.95 1083.37 766.14 1087.07 775.81C1090.04 782.48 1088.24 792.05 1083.6 800.88 1079.19 809.46 1071.68 816.45 1062.56 817.61Q1051.33 816.97 1040.09 814.11 1028.85 809.3 1017.62 803.05 1006.38 795.96 995.14 788.75 983.91 782.14 972.67 776.8 961.44 773.25 950.2 771.85 938.96 772.75 927.73 775.85 916.49 780.84 905.25 787.22 894.02 794.36 882.78 801.53 871.54 808.03 860.31 813.2 849.07 816.52 837.84 817.67 826.6 816.52 815.36 813.2 804.13 808.03 792.89 801.53 781.65 794.35 770.42 787.21 759.18 780.83 747.94 775.84 736.71 772.75 725.47 771.85 714.24 773.25 703 776.8 691.76 782.15 680.53 788.76 669.29 795.96 658.05 803.05 646.82 809.31 635.58 814.11 624.35 816.97 613.11 817.61 601.87 815.97 590.64 812.2 579.4 806.68 568.16 799.97 556.93 792.74 545.69 785.71 534.46 779.59 523.22 774.98 511.98 772.35 500.75 771.97 489.51 773.86 478.28 777.84 467.04 783.52 455.8 790.32 444.57 797.56 433.33 804.53 422.09 810.51 410.86 814.92 399.62 817.31 388.39 817.44 377.15 815.31 365.91 811.11 354.68 805.28 343.44 798.4C334.33 792.51 326.8 782.9 322.57 773.44 318.36 764.15 317.48 754.69 321.62 748.66Q327.42 740.45 333.3 732.34 339.24 724.26 345.24 716.12 351.29 707.82 357.38 699.28 363.49 690.45 369.6 681.25 375.69 671.63 381.74 661.55 387.73 650.97 393.63 639.89 399.43 628.31 405.13 616.22 410.7 603.66 416.16 590.65 421.5 577.25 426.73 563.51 431.88 549.49 436.96 535.26 442 520.88 447.03 506.44 452.09 492.01 457.19 477.66 462.38 463.46 467.68 449.48 473.13 435.76 478.73 422.37 484.51 409.34 490.46 396.7 496.59 384.46 502.89 372.65 509.33 361.24 515.89 350.24 522.55 339.62 529.25 329.34 535.96 319.37 542.63 309.66 549.22 300.15 555.69 290.79 561.99 281.51 568.1 272.27 573.99 262.99 579.65 253.62 585.06 244.11 590.24 234.41 595.2 224.47 599.97 214.27 604.58 203.77 609.07 192.95 613.5 181.82 617.91 170.35 622.38 158.57 626.95 146.48 631.68 134.11 636.61 121.49 641.79 108.65 647.25 95.63 653.01 82.49 659.06 69.25 665.42 55.97 672.05 42.69 682.47 22.9 686.01 16.33" stroke-dasharray="1 11" transform="rotate(0, 711, 400)" opacity="0.68"></path><path d="M685.29 27.3C690.82 17.13 700.01 10.54 708.62 8.79 717.23 7.5 725.21 11.18 728.43 19.88Q732.57 30.94 736.92 42.24 741.51 53.82 746.41 65.65 751.64 77.74 757.22 90.07 763.17 102.63 769.46 115.38 776.08 128.29 783 141.33 790.15 154.45 797.49 167.61 804.94 180.77 812.43 193.86 819.87 206.85 827.2 219.68 834.33 232.32 841.2 244.72 847.75 256.85 853.93 268.68 859.71 280.18 865.08 291.33 870.02 302.14 874.57 312.61 878.74 322.73 882.6 332.54 886.21 342.06 889.63 351.31 892.95 360.36 896.27 369.23 899.67 378 903.24 386.71 907.06 395.42 911.21 404.2 915.75 413.1 920.73 422.19 926.18 431.52 932.11 441.15 938.51 451.11 945.35 461.45 952.6 472.2 960.18 483.36 968.03 494.97 976.05 507 984.14 519.46 992.2 532.32 1000.14 545.54 1007.84 559.09 1015.23 572.92 1022.22 586.96 1028.75 601.16 1034.77 615.44 1040.25 629.73 1045.19 643.95 1049.62 658.04 1053.55 671.91 1057.06 685.51 1060.22 698.76 1063.12 711.62 1065.87 724.04 1068.57 735.97 1071.34 747.4 1074.3 758.31 1077.55 768.7C1080.12 775.86 1077.99 785.01 1073.15 792.88 1068.52 800.47 1060.97 805.86 1052.12 805.27Q1041.22 802.66 1030.31 798.21 1019.4 792.34 1008.49 785.6 997.59 778.62 986.68 772.08 975.77 766.57 964.86 762.63 953.96 760.62 943.05 760.74 932.14 762.97 921.23 767.1 910.32 772.74 899.42 779.36 888.51 786.34 877.6 793.02 866.69 798.76 855.79 803.03 844.88 805.43 833.97 805.72 823.06 803.88 812.16 800.09 801.25 794.69 790.34 788.21 779.43 781.25 768.53 774.46 757.62 768.5 746.71 763.91 735.8 761.14 724.9 760.44 713.99 761.88 703.08 765.33 692.17 770.45 681.27 776.78 670.36 783.7 659.45 790.56 648.54 796.73 637.64 801.62 626.73 804.76 615.82 805.86 604.91 804.82 594.01 801.73 583.1 796.89 572.19 790.76 561.28 783.9 550.38 776.97 539.47 770.62 528.56 765.46 517.65 761.96 506.75 760.45 495.84 761.09 484.93 763.81 474.02 768.34 463.12 774.28 452.21 781.05 441.3 788.01 430.39 794.52 419.49 799.95 408.58 803.8 397.67 805.69 386.76 805.46 375.86 803.13 364.95 798.91 354.04 793.2C345.19 787.84 337.91 778.45 333.84 769.09 329.79 759.79 328.97 750.5 333.04 744.86Q338.75 737.05 344.52 729.18 350.36 721.17 356.25 712.95 362.18 704.44 368.13 695.6 374.08 686.36 380.01 676.7 385.91 666.57 391.76 655.96 397.52 644.87 403.2 633.3 408.77 621.27 414.23 608.81 419.58 595.95 424.81 582.73 429.93 569.23 434.95 555.48 439.9 541.57 444.8 527.55 449.66 513.5 454.53 499.48 459.42 485.56 464.37 471.81 469.42 458.28 474.58 445.01 479.88 432.07 485.33 419.47 490.96 407.25 496.75 395.41 502.72 383.98 508.84 372.94 515.11 362.29 521.49 351.99 527.96 342.03 534.49 332.35 541.02 322.93 547.53 313.71 553.96 304.63 560.29 295.65 566.46 286.7 572.46 277.74 578.26 268.71 583.83 259.55 589.17 250.23 594.29 240.69 599.18 230.91 603.88 220.86 608.4 210.51 612.8 199.85 617.1 188.89 621.37 177.61 625.65 166.03 629.99 154.17 634.45 142.05 639.08 129.71 643.92 117.16 649 104.46 654.35 91.64 659.98 78.75 665.91 65.83 672.12 52.92 681.94 33.68 685.29 27.3" stroke-dasharray="1 6" transform="rotate(3.606060606060606, 711, 400)" opacity="0.35"></path><path d="M684.73 38.26C689.95 28.39 698.78 21.98 707.1 20.26 715.42 18.98 723.18 22.51 726.44 30.92Q730.66 41.6 735.12 52.53 739.85 63.71 744.89 75.14 750.25 86.82 755.95 98.73 761.98 110.87 768.32 123.19 774.94 135.69 781.8 148.32 788.84 161.04 796.02 173.82 803.25 186.61 810.48 199.38 817.62 212.06 824.62 224.62 831.4 237.02 837.91 249.22 844.11 261.18 849.94 272.86 855.39 284.26 860.46 295.33 865.14 306.08 869.45 316.5 873.43 326.58 877.13 336.35 880.6 345.82 883.92 355.01 887.16 363.96 890.4 372.7 893.72 381.28 897.21 389.76 900.93 398.17 904.97 406.59 909.36 415.06 914.16 423.64 919.39 432.38 925.07 441.35 931.19 450.58 937.74 460.12 944.67 470 951.93 480.27 959.45 490.93 967.16 502 974.97 513.48 982.79 525.37 990.53 537.65 998.09 550.3 1005.4 563.29 1012.36 576.56 1018.93 590.08 1025.04 603.78 1030.67 617.61 1035.79 631.49 1040.41 645.37 1044.56 659.17 1048.26 672.83 1051.59 686.27 1054.6 699.45 1057.4 712.29 1060.07 724.75 1062.71 736.79 1065.44 748.38 1068.34 759.48C1070.6 767.17 1068.2 775.89 1063.23 782.75 1058.42 789.32 1050.87 793.15 1042.29 790.99Q1031.7 786.79 1021.11 781.22 1010.52 774.8 999.94 768.09 989.35 761.68 978.76 756.15 968.18 751.98 957.59 749.54 947 749.05 936.41 750.56 925.83 753.93 915.24 758.86 904.65 764.91 894.07 771.55 883.48 778.19 872.89 784.24 862.31 789.15 851.72 792.51 841.13 794 830.54 793.5 819.96 791.05 809.37 786.86 798.78 781.32 788.2 774.9 777.61 768.19 767.02 761.77 756.44 756.22 745.85 752.03 735.26 749.56 724.67 749.05 714.09 750.53 703.5 753.87 692.91 758.78 682.33 764.82 671.74 771.45 661.15 778.09 650.57 784.15 639.98 789.09 629.39 792.47 618.8 793.99 608.22 793.52 597.63 791.1 587.04 786.94 576.46 781.41 565.87 775.01 555.28 768.29 544.7 761.87 534.11 756.3 523.52 752.08 512.94 749.59 502.35 749.04 491.76 750.49 481.17 753.8 470.59 758.69 460 764.72 449.41 771.35 438.83 777.99 428.24 784.06 417.65 789.02 407.07 792.43 396.48 793.98 385.89 793.54 375.31 791.15 364.72 787.01C356.13 782.63 349.09 773.9 345.19 764.89 341.29 755.84 340.55 746.77 344.55 741.29Q350.17 733.54 355.84 725.59 361.57 717.38 367.33 708.84 373.12 699.94 378.91 690.63 384.69 680.88 390.43 670.69 396.13 660.03 401.76 648.91 407.3 637.36 412.74 625.38 418.08 613.01 423.31 600.29 428.42 587.27 433.42 574.01 438.33 560.56 443.15 546.97 447.9 533.33 452.62 519.68 457.31 506.09 462.01 492.62 466.75 479.33 471.56 466.27 476.46 453.47 481.48 440.99 486.63 428.85 491.94 417.07 497.41 405.66 503.05 394.64 508.84 383.98 514.8 373.69 520.89 363.74 527.09 354.11 533.38 344.75 539.72 335.63 546.08 326.7 552.41 317.92 558.69 309.23 564.87 300.58 570.91 291.93 576.8 283.22 582.49 274.4 587.98 265.43 593.25 256.27 598.3 246.89 603.13 237.26 607.76 227.35 612.22 217.16 616.52 206.67 620.72 195.88 624.86 184.79 628.97 173.43 633.11 161.81 637.34 149.95 641.68 137.88 646.2 125.64 650.93 113.26 655.89 100.78 661.11 88.24 666.61 75.68 672.39 63.14 681.58 44.45 684.73 38.26" stroke-dasharray="10 0" transform="rotate(7.212121212121212, 711, 400)" opacity="0.90"></path><path d="M684.36 49.21C689.25 39.64 697.71 33.41 705.74 31.72 713.78 30.45 721.35 33.83 724.68 41.95Q729.01 52.27 733.59 62.82 738.46 73.61 743.63 84.64 749.11 95.91 754.9 107.4 760.98 119.11 767.33 131.01 773.9 143.09 780.67 155.3 787.57 167.62 794.54 180.01 801.54 192.43 808.48 204.84 815.31 217.2 821.96 229.48 828.39 241.62 834.55 253.59 840.39 265.35 845.89 276.88 851.02 288.15 855.8 299.12 860.22 309.8 
            864.31 320.16 868.11 330.21 871.65 339.94 875 349.37 878.21 358.52 881.37 367.4 884.53 376.05 887.78 384.51 891.18 392.81 894.81 401 898.72 409.13 902.97 417.25 907.59 425.41 912.61 433.66 918.05 442.06 923.9 450.65 930.15 459.47 936.77 468.58 943.71 478 950.91 487.77 958.31 497.91 965.83 508.43 973.39 519.34 980.91 530.64 988.31 542.33 995.5 554.38 1002.41 566.77 1008.98 579.46 1015.16 592.41 1020.9 605.58 1026.17 618.91 1030.98 632.35 1035.32 645.84 1039.23 659.3 1042.74 672.69 1045.91 685.94 1048.81 698.98 1051.52 711.77 1054.11 724.24 1056.7 736.36 1059.36 748.08C1061.38 756.25 1058.81 764.52 1053.75 770.4 1048.83 776.01 1041.31 778.46 1032.98 775.05Q1022.71 769.72 1012.44 763.58 1002.16 757.13 991.89 750.91 981.62 745.45 971.34 741.18 961.07 738.48 950.8 737.57 940.53 738.51 930.25 741.24 919.98 745.52 909.71 751.01 899.43 757.23 889.16 763.68 878.89 769.82 868.61 775.13 858.34 779.17 848.07 781.61 837.8 782.24 827.52 781.01 817.25 778.03 806.98 773.53 796.7 767.9 786.43 761.61 776.16 755.17 765.88 749.13 755.61 743.99 745.34 740.18 735.06 738.01 724.79 737.66 714.52 739.17 704.25 742.4 693.97 747.1 683.7 752.86 673.43 759.21 663.15 765.62 652.88 771.55 642.61 776.52 632.33 780.1 622.06 782 611.79 782.06 601.51 780.27 591.24 776.79 580.97 771.91 570.69 766.02 560.42 759.62 550.15 753.25 539.87 747.44 529.6 742.66 519.33 739.32 509.05 737.7 498.78 737.93 488.51 739.99 478.24 743.71 467.96 748.78 457.69 754.77 447.42 761.2 437.14 767.52 426.87 773.2 416.6 777.78 406.32 780.87 396.05 782.22 385.78 781.7 375.5 779.37C367.17 776.28 360.38 768.56 356.63 760.13 352.89 751.59 352.23 742.81 356.16 737.24Q361.67 729.27 367.23 721 372.83 712.38 378.46 703.37 384.08 693.95 389.7 684.1 395.29 673.82 400.84 663.1 406.32 651.96 411.72 640.41 417.03 628.49 422.24 616.23 427.34 603.68 432.33 590.87 437.21 577.87 442 564.72 446.69 551.49 451.31 538.23 455.88 525 460.41 511.86 464.94 498.86 469.49 486.05 474.08 473.48 478.74 461.18 483.5 449.18 488.38 437.51 493.39 426.2 498.55 415.24 503.86 404.64 509.34 394.39 514.97 384.48 520.75 374.9 526.66 365.61 532.68 356.58 538.78 347.77 544.94 339.15 551.12 330.66 557.29 322.27 563.4 313.92 569.43 305.57 575.34 297.17 581.11 288.68 586.7 280.05 592.09 271.25 597.29 262.25 602.27 253.01 607.04 243.52 611.61 233.76 616 223.72 620.24 213.4 624.34 202.79 628.36 191.91 632.34 180.77 636.31 169.4 640.32 157.8 644.41 146.03 648.64 134.09 653.04 122.04 657.64 109.9 662.47 97.72 667.55 85.52 672.89 73.35 681.43 55.22 684.36 49.21" stroke-dasharray="6 8" transform="rotate(10.818181818181818, 711, 400)" opacity="0.24"></path><path d="M684.24 60.16C688.77 50.89 696.85 44.84 704.61 43.18 712.37 41.92 719.78 45.15 723.18 53Q727.64 62.95 732.36 73.12 737.36 83.52 742.64 94.15 748.21 105 754.05 116.08 760.15 127.36 766.46 138.84 772.95 150.48 779.59 162.27 786.3 174.18 793.05 186.17 799.77 198.2 806.41 210.25 812.91 222.28 819.23 234.24 825.3 246.1 831.1 257.82 836.6 269.37 841.77 280.72 846.6 291.84 851.1 302.69 855.28 313.28 859.16 323.58 862.78 333.57 866.17 343.27 869.4 352.67 872.51 361.79 875.58 370.63 878.67 379.22 881.84 387.6 885.16 395.78 888.69 403.81 892.48 411.73 896.58 419.57 901.02 427.4 905.84 435.25 911.04 443.17 916.63 451.22 922.59 459.43 928.9 467.85 935.52 476.51 942.4 485.46 949.48 494.73 956.71 504.33 964 514.29 971.29 524.61 978.49 535.31 985.54 546.38 992.37 557.8 998.91 569.56 1005.11 581.63 1010.93 593.99 1016.33 606.58 1021.3 619.38 1025.83 632.32 1029.94 645.35 1033.65 658.43 1037 671.5 1040.05 684.49 1042.84 697.34 1045.47 710.01 1048 722.45 1050.52 734.59C1052.37 743.13 1049.71 750.96 1044.63 755.96 1039.66 760.75 1032.21 762.1 1024.13 757.84Q1014.16 751.93 1004.2 745.75 994.24 739.76 984.27 734.43 974.31 730.19 964.34 727.37 954.38 726.18 944.41 726.71 934.45 728.93 924.49 732.66 914.52 737.62 904.56 743.4 894.59 749.57 884.63 755.64 874.67 761.14 864.7 765.64 854.74 768.78 844.77 770.33 834.81 770.15 824.84 768.27 814.88 764.84 804.92 760.11 794.95 754.46 784.99 748.33 775.02 742.2 765.06 736.54 755.1 731.81 745.13 728.36 735.17 726.47 725.2 726.28 715.24 727.81 705.27 730.94 695.31 735.43 685.35 740.92 675.38 746.99 665.42 753.16 655.45 758.95 645.49 763.91 635.52 767.65 625.56 769.89 615.6 770.44 605.63 769.26 595.67 766.44 585.7 762.21 575.74 756.9 565.77 750.91 555.81 744.72 545.85 738.81 535.88 733.64 525.92 729.62 515.95 727.05 505.99 726.15 496.02 726.97 486.06 729.46 476.1 733.41 466.13 738.54 456.17 744.42 446.2 750.61 436.24 756.61 426.27 761.97 416.31 766.26 406.34 769.15 396.38 770.42 386.42 769.95C378.33 768.33 371.77 761.85 368.18 754.17 364.59 746.33 363.99 737.89 367.85 732.06Q373.26 723.67 378.69 714.91 384.15 705.76 389.62 696.21 395.07 686.24 400.5 675.86 405.89 665.08 411.22 653.92 416.47 642.4 421.64 630.56 426.72 618.43 431.69 606.05 436.55 593.48 441.31 580.76 445.97 567.95 450.53 555.09 455.02 542.24 459.45 529.46 463.83 516.79 468.2 504.28 472.56 491.98 476.96 479.91 481.4 468.12 485.92 456.63 490.54 445.46 495.28 434.63 500.14 424.13 505.15 413.98 510.32 404.15 515.63 394.65 521.1 385.45 526.7 376.51 532.43 367.83 538.27 359.35 544.19 351.04 550.16 342.86 556.16 334.76 562.15 326.71 568.1 318.66 573.98 310.56 579.75 302.39 585.39 294.09 590.87 285.63 596.17 276.98 601.28 268.13 606.19 259.03 610.91 249.68 615.42 240.07 619.75 230.18 623.92 220.03 627.95 209.62 631.88 198.95 635.73 188.05 639.55 176.92 643.37 165.61 647.25 154.13 651.22 142.51 655.32 130.79 659.59 119 664.05 107.17 668.73 95.34 673.65 83.54 681.53 65.99 684.24 60.16" stroke-dasharray="10 8" transform="rotate(14.424242424242424, 711, 400)" opacity="0.26"></path><path d="M684.4 71.11C688.57 62.14 696.27 56.27 703.75 54.64 711.24 53.4 718.49 56.49 722 64.04Q726.58 73.63 731.43 83.42 736.54 93.43 741.91 103.66 747.53 114.11 753.39 124.77 759.45 135.62 765.69 146.67 772.06 157.89 778.52 169.25 785.02 180.73 791.52 192.31 797.95 203.95 804.27 215.63 810.43 227.3 816.4 238.93 822.12 250.49 827.57 261.94 832.73 273.25 837.59 284.39 842.13 295.34 846.37 306.06 850.31 316.53 853.99 326.74 857.44 336.68 860.69 346.33 863.8 355.7 866.82 364.79 869.8 373.61 872.81 382.17 879.23 398.5 886.23 414.29 890.19 421.94 894.46 429.51 899.08 437.05 904.04 444.6 909.37 452.2 915.05 459.89 921.05 467.73 927.35 475.73 933.92 483.96 940.68 492.43 947.61 501.19 954.62 510.25 961.65 519.63 968.65 529.36 975.53 539.44 982.25 549.87 988.73 560.64 994.92 571.75 1000.78 583.17 1006.27 594.88 1011.38 606.86 1016.08 619.07 1020.38 631.46 1024.28 643.99 1027.83 656.61 1031.04 669.28 1033.97 681.94 1036.69 694.54 1039.24 707.03 1041.71 719.35C1042.13 731.8 1027.15 744.24 1015.65 739.89Q1005.99 733.96 996.33 728.22 986.67 723.1 977.01 718.98 967.35 716.15 957.69 714.81 948.03 715.08 938.37 716.92 928.71 720.2 919.05 724.69 909.39 730.05 899.73 735.9 890.07 741.81 880.41 747.34 870.75 752.1 861.09 755.73 851.43 757.97 841.78 758.66 832.12 757.75 822.46 755.3 812.8 751.5 803.14 746.61 793.48 741 783.82 735.08 774.16 729.27 764.5 724.01 754.84 719.67 745.18 716.57 735.52 714.95 725.86 714.91 716.2 716.45 706.54 719.48 696.88 723.76 687.22 728.99 677.57 734.78 667.91 740.71 658.25 746.34 648.59 751.27 638.93 755.14 629.27 757.66 619.61 758.65 609.95 758.04 600.29 755.88 590.63 752.31 580.97 747.6 571.31 742.1 561.65 736.2 551.99 730.34 542.33 724.94 532.68 720.4 523.02 717.05 513.36 715.13 503.7 714.79 494.04 716.04 484.38 718.8 474.72 722.87 465.06 727.94 455.4 733.66 445.74 739.59 436.08 745.31 426.42 750.41 416.76 754.5 407.1 757.3 397.45 758.59C389.61 758.46 383.29 753.35 379.85 746.53 376.41 739.51 375.87 731.45 379.65 725.25Q384.92 716.32 390.22 707.01 395.52 697.3 400.81 687.21 406.08 676.74 411.31 665.92 416.48 654.76 421.58 643.29 426.6 631.55 431.53 619.58 436.36 607.41 441.09 595.11 445.71 582.7 450.24 570.25 454.68 557.8 459.04 545.39 463.33 533.08 467.57 520.91 471.78 508.92 475.97 497.14 480.18 485.61 484.43 474.35 488.73 463.39 493.11 452.73 497.59 442.4 502.18 432.39 506.91 422.7 511.77 413.31 516.78 404.23 521.93 395.42 527.23 386.86 532.65 378.52 538.2 370.38 543.86 362.39 549.59 354.52 555.38 346.72 561.19 338.97 567.01 331.21 572.79 323.42 578.51 315.54 584.13 307.56 589.64 299.43 595.01 291.12 600.21 282.62 605.24 273.9 610.08 264.94 614.73 255.73 619.19 246.27 623.46 236.55 627.57 226.58 631.54 216.37 635.38 205.92 639.13 195.26 642.82 184.4 646.5 173.37 650.18 162.19 653.93 150.9 657.76 139.52 661.72 128.08 665.84 116.62 670.15 105.16 674.67 93.74 681.91 76.74 684.4 71.11" stroke-dasharray="10 8" transform="rotate(18.03030303030303, 711, 400)" opacity="0.76"></path><path d="M684.85 82.05C688.67 73.38 695.99 67.7 703.21 66.11 710.42 64.88 717.53 67.82 721.14 75.09Q725.84 84.32 730.79 93.74 735.98 103.36 741.41 113.19 747.05 123.23 752.88 133.46 758.87 143.9 764.99 154.51 771.2 165.3 777.46 176.23 783.71 187.29 789.93 198.45 796.05 209.68 802.04 220.97 807.86 232.27 813.47 243.55 818.85 254.79 823.96 265.95 828.8 277 833.35 287.91 837.61 298.65 841.6 309.21 845.32 319.55 848.81 329.65 852.09 339.51 855.21 349.1 858.21 358.43 861.13 367.5 864.03 376.29 866.96 384.83 873.2 401.08 879.99 416.72 888.06 431.59 897.06 446.21 902.14 453.46 907.53 460.74 913.24 468.09 919.23 475.55 925.48 483.16 931.93 490.94 938.54 498.94 945.26 507.19 952.04 515.71 958.8 524.52 965.5 533.64 972.06 543.09 978.45 552.87 984.6 562.97 990.47 573.4 996.02 584.15 1001.23 595.19 1006.07 606.51 1010.54 618.07 1014.63 629.85 1018.37 641.82 1021.77 653.92 1024.87 666.12 1027.72 678.37 1030.36 690.63 1032.85 702.84C1033.28 715.11 1018.6 726.25 1007.42 721.77Q998.06 716.31 988.71 711.45 979.35 707.52 969.99 704.79 960.64 703.43 951.28 703.55 941.92 705.14 932.57 708.08 923.21 712.18 913.85 717.16 904.5 722.67 895.14 728.36 885.78 733.81 876.43 738.68 867.07 742.62 857.71 745.36 848.36 746.73 839 746.62 829.64 745.05 820.29 742.12 810.93 738.03 801.57 733.06 792.22 727.54 782.86 721.86 773.5 716.4 764.15 711.53 754.79 707.58 745.43 704.82 736.08 
            703.44 726.72 703.54 717.36 705.1 708.01 708.02 698.65 712.1 689.29 717.07 679.94 722.58 670.58 728.26 661.22 733.72 651.87 738.6 642.51 742.56 633.16 745.33 623.8 746.72 614.44 746.64 605.09 745.09 595.73 742.18 586.37 738.11 577.02 733.15 567.66 727.64 558.3 721.96 548.95 716.49 539.59 711.61 530.23 707.64 520.88 704.86 511.52 703.46 502.16 703.52 492.81 705.06 483.45 707.96 474.09 712.02 464.74 716.97 455.38 722.48 446.03 728.16 436.67 733.63 427.31 738.52 417.96 742.5 408.6 745.29C397.96 744.67 388.07 726.89 391.51 716.46Q396.64 706.97 401.78 697.12 406.9 686.92 412 676.39 417.07 665.54 422.07 654.41 427.02 643.03 431.88 631.43 436.66 619.66 441.35 607.75 445.93 595.75 450.43 583.71 454.82 571.65 459.13 559.64 463.35 547.71 467.5 535.91 471.6 524.26 475.66 512.81 479.69 501.58 483.73 490.61 487.79 479.9 491.89 469.48 496.05 459.36 500.29 449.54 504.63 440.03 509.09 430.81 513.67 421.88 518.38 413.22 523.23 404.82 528.22 396.64 533.35 388.67 538.6 380.87 543.97 373.21 549.44 365.65 554.98 358.15 560.58 350.7 566.21 343.23 571.85 335.73 577.46 328.15 583.02 320.47 588.5 312.65 593.87 304.67 599.12 296.51 604.22 288.14 609.15 279.55 613.92 270.72 618.5 261.66 622.9 252.36 627.13 242.81 631.18 233.03 635.09 223.03 638.86 212.81 642.53 202.4 646.12 191.82 649.66 181.08 653.18 170.22 656.73 159.26 660.34 148.22 664.03 137.14 667.84 126.05 671.81 114.96 675.96 103.92 682.57 87.49 684.85 82.05" stroke-dasharray="0 2" transform="rotate(21.636363636363637, 711, 400)" opacity="0.79"></path><path d="M685.61 92.98C689.08 84.62 696.04 79.12 702.99 77.56 709.95 76.35 716.91 79.16 720.61 86.15Q725.41 95.01 730.44 104.06 735.68 113.3 741.11 122.73 746.72 132.36 752.48 142.18 758.36 152.18 764.33 162.37 770.34 172.71 776.36 183.21 782.34 193.84 788.26 204.57 794.06 215.39 799.71 226.27 805.19 237.19 810.45 248.11 815.48 259.01 820.27 269.85 824.79 280.61 829.05 291.27 833.04 301.79 836.79 312.15 840.31 322.33 843.61 332.3 846.74 342.05 849.73 351.57 852.62 360.85 855.44 369.87 858.26 378.65 861.1 387.17 867.17 403.38 873.74 418.93 881.49 433.59 890.09 447.87 894.91 454.87 900.04 461.84 905.46 468.81 911.14 475.83 917.07 482.93 923.21 490.14 929.51 497.49 935.93 505.03 942.43 512.78 948.95 520.76 955.43 529 961.83 537.52 968.09 546.33 974.16 555.44 980 564.87 985.58 574.61 990.85 584.65 995.8 594.99 1000.41 605.61 1004.68 616.49 1008.6 627.61 1012.2 638.94 1015.49 650.45 1018.5 662.11 1021.27 673.87 1023.84 685.7C1027.31 702.75 1014.02 712.55 999.33 704.04Q990.27 699.49 981.22 695.83 972.16 693.28 963.11 692.01 954.06 692.1 945 693.54 935.95 696.25 926.9 700.04 917.84 704.69 908.79 709.89 899.73 715.32 890.68 720.63 881.63 725.49 872.57 729.59 863.52 732.66 854.47 734.53 845.41 735.06 836.36 734.23 827.3 732.08 818.25 728.75 809.2 724.46 800.14 719.47 791.09 714.1 782.04 708.7 772.98 703.59 763.93 699.11 754.87 695.54 745.82 693.11 736.77 691.96 727.71 692.18 718.66 693.74 709.6 696.55 700.55 700.44 691.5 705.15 682.44 710.38 673.39 715.82 664.34 721.1 655.28 725.9 646.23 729.92 637.17 732.89 628.12 734.64 619.07 735.04 610.01 734.08 600.96 731.82 591.9 728.39 582.85 724.02 573.8 718.99 564.74 713.6 555.69 708.21 546.63 703.15 537.58 698.74 528.53 695.27 519.47 692.95 510.42 691.92 501.37 692.27 492.31 693.95 483.26 696.87 474.2 700.85 465.15 705.62 456.1 710.89 447.04 716.32 437.99 721.57 428.93 726.31 419.88 730.24C405.18 734.27 396.3 719.35 403.44 705.55Q408.41 695.58 413.36 685.29 418.29 674.73 423.19 663.9 428.03 652.85 432.8 641.61 437.51 630.21 442.13 618.68 446.66 607.08 451.11 595.43 455.45 583.79 459.71 572.18 463.88 560.65 467.96 549.23 471.98 537.96 475.93 526.87 479.84 515.99 483.73 505.34 487.6 494.94 491.48 484.8 495.39 474.94 499.35 465.37 503.37 456.08 507.48 447.08 511.68 438.35 516 429.88 520.44 421.66 525 413.67 529.7 405.89 534.53 398.28 539.48 390.83 544.56 383.49 549.74 376.25 555.02 369.06 560.38 361.89 565.79 354.72 571.23 347.5 576.69 340.21 582.12 332.82 587.51 325.31 592.84 317.64 598.07 309.79 603.2 301.76 608.19 293.52 613.03 285.06 617.71 276.37 622.22 267.46 626.57 258.32 630.74 248.96 634.74 239.38 638.6 229.6 642.31 219.63 645.91 209.48 649.41 199.18 652.84 188.75 656.24 178.21 659.62 167.58 663.02 156.9 666.48 146.18 670.03 135.46 673.69 124.75 677.49 114.09 683.53 98.24 685.61 92.98" stroke-dasharray="0 0" transform="rotate(25.242424242424242, 711, 400)" opacity="0.69"></path><path d="M686.67 103.92C693.1 87.87 712.99 83.89 720.4 97.22Q725.28 105.72 730.35 114.4 735.59 123.25 740.99 132.29 746.53 141.51 752.18 150.91 757.91 160.49 763.68 170.24 769.46 180.16 775.21 190.22 780.9 200.41 786.5 210.71 791.97 221.11 797.28 231.57 802.41 242.09 807.33 252.63 812.03 263.17 816.49 273.67 820.72 284.13 824.69 294.5 828.44 304.77 831.96 314.91 835.28 324.89 838.41 334.71 841.39 344.33 844.25 353.75 847.03 362.95 849.76 371.92 852.49 380.65 855.26 389.15 861.14 405.33 867.49 420.85 874.92 435.39 883.13 449.46 892.71 463.01 903.09 476.42 908.71 483.12 914.53 489.87 920.52 496.7 926.64 503.64 932.85 510.73 939.11 517.99 945.36 525.45 951.56 533.13 957.66 541.05 963.63 549.23 969.41 557.69 974.96 566.43 980.27 575.46 985.29 584.79 990.01 594.4 994.43 604.28 998.52 614.44 1002.3 624.85 1005.78 635.5 1008.97 646.35 1011.9 657.38 1014.61 668.56C1018.2 684.85 1005.46 694.39 991.26 687.26Q973.76 681.64 956.26 680.71 938.76 684.67 921.26 692.61 903.76 702.69 886.26 712.58 868.76 720 851.26 723.21 833.75 721.49 816.25 715.22 798.75 705.86 781.25 695.58 763.75 686.75 746.25 681.42 728.75 680.82 711.25 685.09 693.75 693.25 676.25 703.39 658.75 713.19 641.25 720.36 623.75 723.25 606.25 721.19 588.75 714.66 571.25 705.17 553.75 694.91 536.25 686.26 518.75 681.23 501.25 680.96 483.75 685.54 466.25 693.89 448.75 704.09 431.25 713.77C417.05 719.69 408.5 706.99 415.4 692.59Q420.19 682.28 424.94 671.73 429.66 660.99 434.33 650.08 438.94 639.03 443.48 627.89 447.94 616.67 452.31 605.43 456.6 594.2 460.8 583 464.9 571.89 468.93 560.88 472.87 550.02 476.75 539.32 480.56 528.82 484.33 518.53 488.06 508.47 491.77 498.67 495.49 489.12 499.22 479.84 502.99 470.82 506.81 462.07 510.7 453.59 514.67 445.35 518.74 437.35 522.91 429.58 531.68 414.69 540.82 400.28 550.56 386.36 560.6 372.58 571 358.72 581.51 344.64 586.77 337.41 591.99 330.03 597.16 322.5 602.25 314.78 607.24 306.87 612.11 298.76 616.85 290.43 621.45 281.9 625.89 273.14 630.17 264.18 634.28 255.01 638.24 245.65 642.05 236.1 645.71 226.38 649.25 216.51 652.68 206.51 656.03 196.39 659.31 186.17 662.56 175.89 665.8 165.57 669.06 155.22 672.38 144.87 675.77 134.54 679.27 124.26 684.78 108.99 686.67 103.92" stroke-dasharray="5 6" transform="rotate(28.848484848484848, 711, 400)" opacity="0.40"></path><path d="M688.02 114.85C693.84 99.41 712.99 95.51 720.5 108.28Q725.41 116.43 730.48 124.73 735.68 133.21 741.01 141.85 746.43 150.67 751.93 159.66 757.46 168.81 763 178.13 768.52 187.61 773.99 197.23 779.37 206.98 784.64 216.85 789.77 226.81 794.74 236.86 799.53 246.96 804.11 257.11 808.49 267.26 812.64 277.42 816.58 287.54 820.29 297.6 823.79 307.59 827.1 317.48 830.23 327.25 833.2 336.87 836.04 346.33 838.78 355.62 841.45 364.72 844.09 373.61 846.73 382.29 849.42 390.75 855.12 406.91 861.24 422.41 868.35 436.89 876.17 450.86 885.25 464.14 895.07 477.15 905.98 489.97 917.39 502.86 923.3 509.42 929.28 516.08 935.28 522.87 941.27 529.83 947.19 536.97 953.01 544.31 958.69 551.88 964.19 559.69 969.49 567.75 974.54 576.08 979.34 584.67 983.87 593.54 988.1 602.68 992.05 612.08 995.7 621.74 999.08 631.64 1002.2 641.77 1005.07 652.1C1008.84 667.29 996.8 677.06 983.1 671.85Q966.21 669.07 949.32 670.83 932.44 676.75 915.55 685.56 898.66 695.38 881.77 704.1 864.89 709.86 848 711.41 831.11 708.43 814.22 701.56 797.34 692.26 780.45 682.53 763.56 674.46 746.67 669.77 729.78 669.48 712.9 673.63 696.01 681.35 679.12 690.98 662.23 700.45 645.34 707.74 628.46 711.28 611.57 710.31 594.68 705.05 577.79 696.62 560.9 686.82 544.02 677.76 527.13 671.38 510.24 669.04 493.35 671.25 476.46 677.53 459.58 686.54 442.69 696.34C428.99 703.43 420.75 692.58 427.39 677.86Q431.97 667.41 436.51 656.82 441.01 646.12 445.44 635.35 449.8 624.52 454.09 613.69 458.3 602.87 462.42 592.11 466.46 581.42 470.42 570.85 474.29 560.41 478.09 550.14 481.82 540.05 485.49 530.16 489.11 520.49 492.69 511.05 496.26 501.86 499.81 492.91 503.37 484.21 506.96 475.76 514.31 459.71 521.86 444.33 529.89 429.92 538.24 415.98 547.18 402.58 556.46 389.34 566.21 376.11 576.18 362.73 586.32 348.88 596.45 334.61 601.45 327.2 606.39 319.6 611.25 311.82 616 303.84 620.63 295.65 625.13 287.27 629.49 278.69 633.7 269.91 637.76 260.95 641.67 251.81 645.43 242.51 649.05 233.06 652.54 223.47 655.91 213.77 659.19 203.97 662.39 194.1 665.53 184.17 668.63 174.21 671.73 164.23 674.85 154.26 678.01 144.32 681.25 134.42 686.3 119.72 688.02 114.85" stroke-dasharray="9 9" transform="rotate(32.45454545454545, 711, 400)" opacity="0.21"></path><path d="M689.63 125.77C694.91 110.93 713.32 107.13 720.88 119.36Q725.78 127.14 730.79 135.08 735.91 143.17 741.12 151.43 746.38 159.84 751.68 168.42 756.98 177.15 762.27 186.04 767.5 195.08 772.67 204.26 777.73 213.57 782.66 222.99 787.46 232.52 792.09 242.13 796.54 251.82 800.79 261.55 804.86 271.31 808.72 281.09 812.37 290.86 815.84 300.59 819.11 310.27 822.22 319.88 825.17 329.4 827.98 338.8 830.69 348.07 833.31 357.2 835.88 366.16 838.43 374.95 843.62 391.85 849.03 408.15 855.09 423.43 861.69 438.1 869.35 451.85 877.71 465.12 887.2 477.79 897.3 490.21 908.23 502.48 919.49 514.81 930.96 527.49 942.33 540.54 947.88 547.33 953.3 554.31 958.54 561.49 963.6 568.89 968.43 576.52 973.03 584.4 977.38 592.52 981.46 600.9 985.28 609.53 988.83 618.41 992.13 627.53 995.18 636.89C999.19 650.74 987.92 661.12 974.72 658.13Q958.46 658.16 942.19 662.23 925.92 669.55 909.66 678.67 893.39 687.79 877.12 695.09 860.86 699.15 844.59 699.15 828.32 695.09 812.06 687.78 795.79 678.67 779.52 669.55 763.26 662.23 746.99 658.15 730.72 658.13 714.46 662.17 
            698.19 669.46 681.92 678.57 665.65 687.7 649.39 695.03 633.12 699.12 616.85 699.17 600.59 695.15 584.32 687.87 568.05 678.77 551.78 669.64 535.52 662.29 519.25 658.18 502.98 658.11 486.72 662.11 470.45 669.37 454.18 678.48C440.98 685.97 433.02 676.51 439.36 661.78Q443.72 651.43 448.03 641.03 452.28 630.61 456.46 620.19 460.58 609.81 464.61 599.49 468.57 589.25 472.45 579.13 476.24 569.15 479.96 559.32 483.61 549.67 487.19 540.22 490.71 530.97 494.18 521.94 497.62 513.14 501.03 504.56 507.83 488.23 514.69 472.58 521.77 457.99 529.06 443.94 536.8 430.65 544.87 417.68 553.48 405.01 562.4 392.4 571.78 379.62 581.36 366.61 591.13 353.03 600.89 339.01 605.73 331.72 610.51 324.24 615.22 316.58 619.84 308.74 624.36 300.71 628.76 292.49 633.03 284.09 637.17 275.51 641.17 266.77 645.03 257.87 648.74 248.83 652.32 239.65 655.76 230.37 659.09 220.98 662.31 211.51 665.44 201.99 668.49 192.42 671.49 182.82 674.46 173.22 677.42 163.63 680.39 154.08 683.4 144.57 688.05 130.45 689.63 125.77" stroke-dasharray="7 3" transform="rotate(36.06060606060606, 711, 400)" opacity="0.51"></path><path d="M691.46 136.69C696.28 122.46 713.96 118.76 721.49 130.43Q731.25 145.44 741.28 161.02 751.41 177.2 761.46 193.97 771.23 211.31 780.56 229.16 789.31 247.42 797.37 265.98 804.71 284.72 811.34 303.49 817.31 322.14 822.76 340.52 827.85 358.5 832.77 375.94 837.75 392.75 843.01 408.84 848.75 424.18 855.14 438.75 862.31 452.58 870.31 465.73 879.15 478.31 888.76 490.43 899.02 502.26 909.73 513.96 920.68 525.72 931.62 537.73 942.29 550.16 952.46 563.17 961.93 576.91 970.53 591.48 978.19 606.95 984.89 623.36C989.14 635.74 978.74 646.96 966.06 646.26Q950.42 648.82 934.78 654.69 919.15 662.81 903.51 671.69 887.87 679.73 872.24 685.46 856.6 687.84 840.96 686.44 825.32 681.5 809.69 673.93 794.05 665.11 778.41 656.64 762.78 650.06 747.14 646.57 731.5 646.8 715.87 650.71 700.23 657.59 684.59 666.18 668.95 674.94 653.32 682.25 637.68 686.8 622.04 687.75 606.41 684.94 590.77 678.87 575.13 670.64 559.49 661.76 543.86 653.84 528.22 648.32 512.58 646.2 496.94 647.88 481.31 653.03 465.67 660.74C452.99 667.9 445.27 659.33 451.28 644.94Q459.47 624.95 467.4 605.16 475.04 585.75 482.38 566.9 489.43 548.74 496.23 531.35 502.84 514.82 509.34 499.15 515.83 484.32 522.42 470.27 529.2 456.91 536.26 444.11 543.67 431.74 551.49 419.61 559.72 407.58 568.35 395.45 577.32 383.09 586.55 370.34 595.92 357.08 605.32 343.22 614.61 328.69 623.65 313.47 632.34 297.56 640.57 280.99 648.3 263.84 655.5 246.19 662.19 228.15 668.44 209.85 674.35 191.42 680.05 173 685.7 154.72 691.46 136.69 691.46 136.69 691.46 136.69" stroke-dasharray="7 8" transform="rotate(39.666666666666664, 711, 400)" opacity="0.57"></path><path d="M693.47 147.6C697.9 133.99 714.86 130.39 722.29 141.51Q731.79 155.8 741.44 170.62 751.07 186 760.53 201.93 769.66 218.39 778.32 235.35 786.41 252.71 793.86 270.41 800.64 288.31 806.8 306.31 812.39 324.27 817.53 342.06 822.39 359.55 827.12 376.61 831.93 393.15 837 409.08 842.51 424.33 848.6 438.88 855.39 452.72 862.93 465.88 871.24 478.41 880.27 490.41 889.91 501.99 900.02 513.29 910.41 524.45 920.88 535.63 931.2 547.01 941.17 558.73 950.58 570.96 959.28 583.81 967.16 597.39 974.17 611.79C978.67 622.68 969.17 634.79 957.01 636.22Q942.01 640.85 927.01 647.91 912.02 656.22 897.02 664.4 882.03 671.08 867.03 675.16 852.03 675.95 837.04 673.31 822.04 667.7 807.04 660.04 792.05 651.61 777.05 643.82 762.06 637.96 747.06 635.01 732.06 635.46 717.07 639.24 702.07 645.72 687.07 653.81 672.08 662.17 657.08 669.41 642.09 674.32 627.09 676.08 612.09 674.39 597.1 669.55 582.1 662.35 567.1 654 552.11 645.89 537.11 639.36 522.11 635.51 507.12 634.98 492.12 637.86 477.12 643.67C464.96 649.87 457.47 641.69 463.14 627.97Q470.82 609.15 478.23 590.75 485.37 572.92 492.22 555.75 498.82 539.33 505.21 523.7 511.45 508.86 517.63 494.8 523.83 481.46 530.14 468.74 536.66 456.54 543.46 444.73 550.6 433.16 558.12 421.69 566.02 410.16 574.3 398.43 582.89 386.37 591.72 373.87 600.71 360.84 609.73 347.2 618.67 332.94 627.42 318.02 635.86 302.48 643.9 286.35 651.49 269.71 658.59 252.65 665.2 235.27 671.37 217.68 677.16 200 682.69 182.35 688.08 164.85 693.47 147.6 693.47 147.6 693.47 147.6" stroke-dasharray="11 0" transform="rotate(43.27272727272727, 711, 400)" opacity="0.65"></path><path d="M695.61 158.51C699.73 145.52 715.96 142.02 723.2 152.6Q732.36 166.18 741.56 180.24 750.64 194.82 759.48 209.91 767.95 225.5 775.94 241.56 783.39 258.03 790.24 274.84 796.51 291.88 802.22 309.07 807.45 326.29 812.31 343.43 816.93 360.35 821.48 376.97 826.11 393.16 830.98 408.85 836.26 423.96 842.06 438.44 848.48 452.27 855.58 465.45 863.37 478 871.82 489.98 880.85 501.45 890.35 512.52 900.17 523.31 910.13 533.94 920.05 544.55 929.73 555.3 939.01 566.31 947.71 577.73 955.74 589.67 963 602.25C967.73 611.73 959.14 624.64 947.5 627.84Q933.16 633.95 918.81 641.55 904.47 649.5 890.13 656.59 875.78 661.73 861.44 664.15 847.1 663.48 832.75 659.82 818.41 653.73 804.07 646.13 789.73 638.18 775.38 631.08 761.04 625.92 746.7 623.49 732.35 624.14 718.01 627.78 703.67 633.86 689.32 641.46 674.98 649.41 660.63 656.51 646.29 661.68 631.95 664.14 617.6 663.5 603.26 659.88 588.92 653.81 574.57 646.22 560.23 638.27 545.89 631.16 531.54 625.97 517.2 623.5 502.86 624.11 488.51 627.72C476.88 632.49 469.6 624.27 474.9 611.51Q482.06 594.18 488.96 577.42 495.6 561.32 501.98 545.91 508.15 531.25 514.15 517.31 520.04 504.07 525.91 491.48 531.83 479.45 537.88 467.88 544.14 456.66 550.68 445.66 557.54 434.75 564.76 423.79 572.33 412.66 580.24 401.25 588.45 389.44 596.9 377.16 605.49 364.35 614.13 350.95 622.72 336.96 631.15 322.38 639.33 307.24 647.16 291.58 654.59 275.49 661.58 259.05 668.11 242.34 674.2 225.48 679.91 208.56 685.31 191.7 693.06 166.75 695.61 158.51" stroke-dasharray="7 1" transform="rotate(46.878787878787875, 711, 400)" opacity="0.28"></path><path d="M697.81 169.42C701.69 157.03 717.2 153.65 724.18 163.7Q732.92 176.57 741.59 189.88 750.08 203.67 758.27 217.92 766.08 232.65 773.42 247.82 780.25 263.38 786.54 279.29 792.31 295.46 797.61 311.81 802.5 328.24 807.08 344.66 811.49 360.96 815.84 377.05 820.29 392.81 824.97 408.18 830.01 423.07 835.52 437.43 841.58 451.21 848.24 464.38 855.53 476.96 863.42 488.96 871.86 500.43 880.75 511.42 889.98 522.02 899.41 532.32 908.87 542.45 918.21 552.51 927.26 562.63 935.89 572.94 943.96 583.56 951.4 594.59C956.32 602.86 948.61 616.33 937.52 620.81Q923.84 627.72 910.16 635.25 896.48 642.36 882.8 648.06 869.12 651.58 855.44 652.42 841.76 650.47 828.08 646 814.4 639.63 800.72 632.23 787.04 624.82 773.36 618.44 759.68 613.96 746 611.99 732.32 612.82 718.64 616.32 704.96 622.02 691.29 629.12 677.61 636.65 663.93 643.56 650.25 648.91 636.57 651.95 622.89 652.27 609.21 649.81 595.53 644.93 581.85 638.29 568.17 630.81 554.49 623.52 540.81 617.43 527.13 613.38 513.46 611.93 499.78 613.28C488.68 616.31 481.6 607.75 486.52 596.15Q493.16 580.52 499.55 565.53 505.71 551.2 511.64 537.54 517.4 524.54 523.03 512.18 528.6 500.37 534.17 489.07 539.82 478.16 545.62 467.55 551.62 457.12 557.9 446.77 564.48 436.37 571.39 425.82 578.63 415 586.19 403.84 594.02 392.26 602.06 380.19 610.26 367.59 618.51 354.45 626.74 340.77 634.84 326.55 642.74 311.85 650.35 296.7 657.6 281.19 664.46 265.39 670.9 249.38 676.92 233.25 682.56 217.11 687.87 201.03 695.37 177.26 697.81 169.42" stroke-dasharray="7 5" transform="rotate(50.484848484848484, 711, 400)" opacity="0.86"></path><path d="M700.01 180.32C703.72 168.55 718.51 165.29 725.16 174.79Q733.4 186.97 741.5 199.54 749.36 212.54 756.9 225.97 764.05 239.84 770.76 254.11 776.99 268.77 782.76 283.77 788.06 299.04 792.97 314.52 797.54 330.13 801.86 345.79 806.05 361.4 810.22 376.88 814.48 392.14 818.96 407.1 823.76 421.69 828.98 435.83 834.69 449.49 840.93 462.62 847.73 475.2 855.08 487.24 862.93 498.74 871.22 509.74 879.85 520.29 888.72 530.46 897.68 540.32 906.62 549.97 915.37 559.51 923.83 569.04 931.87 578.68 939.38 588.52C944.42 595.8 937.58 609.49 927.03 614.7Q914.03 621.74 901.02 628.64 888.02 634.54 875.01 638.69 862.01 640.59 849 640 836 636.98 822.99 631.92 809.99 625.45 796.98 618.37 783.98 611.57 770.98 605.89 757.97 602.05 744.97 600.53 731.96 601.5 718.96 604.86 705.95 610.18 692.95 616.8 679.94 623.89 666.94 630.57 653.94 636.01 640.93 639.52 627.93 640.68 614.92 639.33 601.92 635.64 588.91 630.07 575.91 623.33 562.91 616.24 549.9 609.69 536.9 604.51 523.89 601.33 510.89 600.56C500.34 601.77 493.46 592.67 498 582.34Q504.12 568.51 510.02 555.29 515.71 542.67 521.22 530.65 526.59 519.18 531.88 508.19 537.13 497.63 542.43 487.4 547.81 477.41 553.36 467.56 559.11 457.76 565.13 447.91 571.43 437.9 578.03 427.66 584.93 417.09 592.13 406.14 599.57 394.76 607.22 382.9 615.02 370.55 622.88 357.69 630.73 344.35 638.5 330.54 646.1 316.31 653.45 301.71 660.51 286.8 667.22 271.67 673.55 256.37 679.5 241 685.08 225.64 690.32 210.36 697.64 187.78 700.01 180.32" stroke-dasharray="2 7" transform="rotate(54.090909090909086, 711, 400)" opacity="0.57"></path><path d="M702.15 191.22C705.75 180.07 719.81 176.93 726.07 185.9Q733.74 197.38 741.23 209.21 748.45 221.43 755.34 234.05 761.85 247.06 767.94 260.46 773.62 274.21 778.88 288.29 783.76 302.66 788.3 317.24 792.56 331.99 796.64 346.84 800.62 361.7 804.59 376.51 808.67 391.18 812.94 405.64 817.51 419.83 822.44 433.67 827.8 447.12 833.63 460.13 839.96 472.66 846.78 484.7 854.06 496.25 861.75 507.3 869.78 517.88 878.07 528.03 886.5 537.81 894.98 547.27 903.37 556.49 911.57 565.55 919.47 574.54 926.98 583.55C932.09 590.09 926.03 603.65 916.03 609.01Q903.71 615.58 891.4 621.4 879.08 625.84 866.76 628.38 854.44 628.76 842.12 626.91 829.8 623.06 817.48 617.63 805.17 611.23 792.85 604.58 780.53 598.42 768.21 593.45 755.89 590.22 743.57 589.09 731.25 590.19 718.93 593.4 706.62 598.35 694.3 604.49 681.98 611.14 669.66 617.55 657.34 623 645.02 626.87 632.7 628.75 620.38 628.4 608.06 625.88 595.75 621.47 583.43 615.66 571.11 609.1 558.79 602.53 546.47 596.68 534.15 
            592.21 521.83 589.62C511.83 589.11 505.15 579.41 509.32 570.37Q514.94 558.29 520.36 546.75 525.61 535.72 530.72 525.15 535.74 514.99 540.7 505.18 545.66 495.63 550.69 486.26 555.82 476.99 561.12 467.74 566.63 458.41 572.37 448.93 578.39 439.22 584.68 429.21 591.25 418.86 598.08 408.11 605.14 396.92 612.39 385.29 619.78 373.2 627.24 360.67 634.72 347.7 642.13 334.34 649.41 320.62 656.5 306.6 663.34 292.34 669.88 277.89 676.09 263.33 681.95 248.73 687.46 234.16 692.64 219.67 699.84 198.28 702.15 191.22" stroke-dasharray="8 4" transform="rotate(57.696969696969695, 711, 400)" opacity="0.22"></path><path d="M704.19 202.13C707.7 191.58 721.03 188.57 726.84 197.02Q733.92 207.81 740.77 218.91 747.34 230.37 753.58 242.17 759.47 254.34 764.99 266.86 770.14 279.71 774.94 292.88 779.41 306.32 783.61 320 787.59 333.86 791.42 347.85 795.19 361.91 798.98 375.98 802.87 389.98 806.93 403.86 811.26 417.56 815.91 431 820.93 444.14 826.36 456.93 832.23 469.33 838.53 481.31 845.26 492.84 852.36 503.93 859.8 514.57 867.49 524.78 875.37 534.58 883.34 544 891.31 553.11 899.18 561.95 906.85 570.59 914.24 579.1C919.35 585.18 914 598.21 904.57 603.2Q892.94 608.79 881.32 613.24 869.69 616.1 858.07 617.08 846.44 616.1 834.82 613.24 823.19 608.79 811.57 603.2 799.94 597.03 788.32 590.89 776.69 585.4 765.07 581.11 753.44 578.45 741.82 577.68 730.19 578.88 718.57 581.93 706.94 586.53 695.31 592.21 683.69 598.41 672.06 604.51 660.44 609.89 648.81 614.02 637.19 616.48 625.56 617.03 613.94 615.62 602.31 612.38 590.69 607.64 579.06 601.87 567.43 595.65 555.81 589.6 544.18 584.33 532.56 580.37C523.12 578.39 516.66 568.18 520.47 560.36Q525.6 549.89 530.58 539.84 535.41 530.18 540.15 520.84 544.83 511.76 549.49 502.88 554.18 494.13 558.95 485.42 563.83 476.7 568.89 467.88 574.14 458.89 579.62 449.69 585.34 440.21 591.32 430.4 597.55 420.23 604.02 409.67 610.69 398.71 617.55 387.34 624.53 375.56 631.59 363.39 638.68 350.85 645.72 337.97 652.68 324.81 659.48 311.4 666.07 297.81 672.42 284.08 678.48 270.27 684.23 256.45 689.67 242.67 694.79 228.99 701.9 208.8 704.19 202.13" stroke-dasharray="8 7" transform="rotate(61.303030303030305, 711, 400)" opacity="0.97"></path><path d="M706.05 213.02C709.51 203.09 722.09 200.22 727.42 208.14Q733.87 218.24 740.08 228.63 746.01 239.32 751.63 250.32 756.93 261.66 761.91 273.31 766.57 285.27 770.93 297.52 775.02 310.04 778.9 322.8 782.61 335.75 786.22 348.85 789.78 362.07 793.38 375.33 797.07 388.6 800.93 401.81 805.01 414.92 809.37 427.86 814.06 440.58 819.11 453.05 824.53 465.21 830.34 477.03 836.52 488.49 843.05 499.55 849.89 510.22 857 520.48 864.3 530.35 871.74 539.83 879.23 548.96 886.7 557.76 894.06 566.28 901.24 574.56C906.25 580.41 901.54 592.57 892.68 596.76Q881.75 601.02 870.83 603.93 859.9 605.22 848.98 604.78 838.05 602.66 827.13 599.04 816.2 594.24 805.28 588.68 794.35 582.87 783.42 577.31 772.5 572.5 761.57 568.87 750.65 566.74 739.72 566.29 728.8 567.57 717.87 570.46 706.95 574.71 696.02 579.94 685.1 585.69 674.17 591.44 663.24 596.69 652.32 600.97 641.39 603.89 630.47 605.21 619.54 604.8 608.62 602.71 597.69 599.1 586.77 594.32 575.84 588.77 564.91 582.96 553.99 577.39 543.06 572.57C534.2 569.5 527.98 558.97 531.43 552.22Q536.11 543.13 540.67 534.34 545.13 525.78 549.52 517.42 553.89 509.19 558.26 501.02 562.69 492.85 567.21 484.62 571.86 476.28 576.67 467.77 581.67 459.04 586.88 450.05 592.31 440.75 597.97 431.13 603.86 421.15 609.96 410.81 616.25 400.1 622.7 389.02 629.27 377.59 635.93 365.83 642.62 353.77 649.29 341.43 655.9 328.86 662.39 316.1 668.71 303.2 674.84 290.21 680.72 277.17 686.35 264.14 691.69 251.17 696.75 238.3 703.79 219.3 706.05 213.02" stroke-dasharray="2 5" transform="rotate(64.9090909090909, 711, 400)" opacity="0.58"></path><path d="M707.68 223.91C711.1 214.61 722.95 211.87 727.77 219.27Q733.58 228.69 739.15 238.36 744.46 248.3 749.48 258.52 754.23 269.03 758.7 279.82 762.9 290.9 766.86 302.24 770.61 313.84 774.19 325.67 777.64 337.69 781.02 349.89 784.38 362.22 787.78 374.63 791.28 387.1 794.92 399.57 798.76 411.99 802.84 424.33 807.21 436.53 811.87 448.56 816.87 460.36 822.2 471.92 827.85 483.18 833.83 494.13 840.09 504.75 846.6 515.02 853.32 524.93 860.2 534.48 867.17 543.68 874.17 552.55 881.15 561.09 888.02 569.35C892.87 575.13 888.7 586.16 880.41 589.27Q870.19 592.01 859.97 593.35 849.75 593.2 839.53 591.56 829.31 588.56 819.09 584.44 808.87 579.51 798.65 574.17 788.43 568.82 778.21 563.89 767.99 559.75 757.77 556.75 747.55 555.1 737.33 554.93 727.1 556.27 716.88 559 706.66 562.91 696.44 567.7 686.22 573 676 578.38 665.78 583.43 655.56 587.76 645.34 591.02 635.12 592.97 624.9 593.45 614.68 592.42 604.46 589.97 594.24 586.28 584.02 581.64 573.8 576.42 563.58 571.02 553.36 565.86C545.06 562.14 539.1 551.54 542.23 545.67Q546.49 537.7 550.66 529.89 558.84 514.56 567.03 499.27 571.21 491.51 575.49 483.62 579.9 475.55 584.47 467.27 589.21 458.73 594.15 449.91 599.28 440.79 604.62 431.35 610.17 421.59 615.9 411.5 621.8 401.08 627.85 390.35 634.01 379.33 640.26 368.03 646.54 356.49 652.83 344.73 659.07 332.79 665.24 320.71 671.27 308.54 677.15 296.3 682.83 284.05 688.29 271.82 693.52 259.66 698.49 247.59 705.45 229.79 707.68 223.91" stroke-dasharray="8 10" transform="rotate(68.51515151515152, 711, 400)" opacity="0.72"></path><path d="M709.06 234.8C712.45 226.12 723.52 223.53 727.83 230.4Q733.01 239.15 737.97 248.11 742.68 257.31 747.15 266.75 751.37 276.45 755.37 286.4 759.15 296.6 762.74 307.05 766.16 317.73 769.46 328.62 772.67 339.72 775.83 350.99 778.99 362.4 782.2 373.93 785.49 385.54 788.91 397.19 792.51 408.86 796.31 420.5 800.35 432.07 804.65 443.54 809.23 454.87 814.1 466.03 819.25 476.98 824.68 487.7 830.37 498.16 836.3 508.33 842.43 518.21 848.73 527.78 855.15 537.04 861.65 545.98 868.17 554.61 874.66 562.94C879.28 568.76 875.58 578.48 867.86 580.36Q858.35 581.56 848.83 581.46 839.32 580.08 829.81 577.51 820.29 573.91 810.78 569.54 801.27 564.7 791.75 559.71 782.24 554.91 772.73 550.62 763.21 547.15 753.7 544.73 744.19 543.52 734.67 543.6 725.16 544.97 715.64 547.54 706.13 551.12 696.62 555.49 687.1 560.33 677.59 565.32 668.08 570.12 658.56 574.41 649.05 577.89 639.53 580.32 630.02 581.55 620.51 581.48 610.99 580.12 601.48 577.56 591.97 573.98 582.45 569.62 572.94 564.78 563.42 559.79C555.71 555.86 550.05 545.5 552.88 540.3Q560.56 526.07 568.15 511.85 575.86 497.24 583.8 482.18 587.97 474.3 592.29 466.19 596.77 457.82 601.43 449.17 606.27 440.24 611.28 431.02 616.48 421.52 621.84 411.73 627.35 401.66 633 391.34 638.75 380.77 644.58 369.99 650.45 359.02 656.34 347.88 662.21 336.62 668.03 325.25 673.75 313.82 679.35 302.36 684.8 290.9 690.07 279.48 695.15 268.14 700.01 256.89 706.86 240.28 709.06 234.8" stroke-dasharray="2 7" transform="rotate(72.12121212121212, 711, 400)" opacity="0.69"></path><path d="M710.15 245.69C713.49 237.62 723.79 235.18 727.6 241.54Q732.16 249.62 736.53 257.88 740.68 266.35 744.63 275.03 748.38 283.93 751.94 293.05 755.33 302.39 758.58 311.95 761.7 321.72 764.74 331.69 767.71 341.85 770.66 352.17 773.61 362.65 776.62 373.26 779.7 383.97 782.91 394.76 786.26 405.6 789.78 416.46 793.51 427.31 797.45 438.12 801.63 448.85 806.05 459.48 810.72 469.99 815.63 480.33 820.76 490.49 826.12 500.44 831.67 510.17 837.38 519.66 843.24 528.88 849.19 537.84 855.21 546.52 861.24 554.93C865.58 560.82 862.25 569.18 855.11 569.82Q837.5 568.3 819.89 562.75 802.27 554.47 784.66 545.36 767.05 537.55 749.43 532.83 731.82 532.29 714.21 536.07 696.59 543.29 678.98 552.28 661.36 560.95 643.75 567.3 626.14 569.86 608.52 568.04 590.91 562.26 573.29 553.85C566.15 550.13 560.82 540.28 563.39 535.56Q570.41 522.34 577.43 508.89 584.65 494.76 592.13 480.08 596.06 472.36 600.13 464.41 604.35 456.21 608.72 447.77 613.25 439.07 617.94 430.12 622.79 420.92 627.78 411.49 632.9 401.84 638.14 391.98 643.48 381.94 648.89 371.73 654.35 361.37 659.84 350.9 665.32 340.34 670.77 329.72 676.15 319.06 681.45 308.39 686.63 297.74 691.68 287.14 696.57 276.61 701.29 266.18 707.98 250.77 710.15 245.69" stroke-dasharray="5 8" transform="rotate(75.72727272727272, 711, 400)" opacity="0.87"></path><path d="M710.93 256.57C714.2 249.13 723.72 246.84 727.04 252.69Q734.75 267.76 741.94 283.35 745.25 291.47 748.42 299.77 751.46 308.27 754.39 316.96 757.23 325.83 760.01 334.88 762.76 344.11 765.49 353.5 768.25 363.03 771.05 372.7 773.93 382.49 776.9 392.37 780.01 402.32 783.25 412.33 786.67 422.37 790.27 432.42 794.06 442.45 798.05 452.43 802.25 462.35 806.66 472.18 811.26 481.9 816.06 491.48 821.04 500.91 826.17 510.16 831.45 519.22 836.84 528.08 842.31 536.72 847.84 545.13C851.83 551.03 848.82 558.06 842.24 557.61Q826.04 553.99 809.84 547.47 793.64 539.33 777.43 531.2 761.23 524.66 745.03 521.03 728.83 521.01 712.62 524.61 696.42 531.12 680.22 539.25 664.02 547.39 647.82 553.94 631.61 557.59 615.41 557.63 599.21 554.04 583.01 547.55C576.44 544.36 571.48 535.29 573.79 530.88Q580.23 518.29 586.72 505.32 593.47 491.53 600.49 477.16 604.18 469.61 608 461.85 611.94 453.86 616.03 445.67 620.25 437.25 624.61 428.64 629.1 419.82 633.71 410.82 638.45 401.65 643.28 392.32 648.21 382.85 653.2 373.26 658.24 363.58 663.31 353.81 668.4 343.99 673.46 334.13 678.49 324.26 683.46 314.4 688.34 304.57 693.13 294.79 697.8 285.08 702.33 275.46 708.82 261.26 710.93 256.57" stroke-dasharray="0 0" transform="rotate(79.33333333333333, 711, 400)" opacity="0.48"></path><path d="M711.4 267.45C714.57 260.63 723.29 258.51 726.16 263.84Q732.9 277.5 739.1 291.72 744.82 306.58 750.17 322.07 755.29 338.22 760.34 354.98 765.49 372.29 770.9 390.07 776.73 408.21 783.1 426.58 790.1 445.03 797.78 463.42 806.13 481.6 815.11 499.42 824.62 516.75 834.52 533.47C838.14 539.31 835.37 545.11 829.37 543.79Q814.57 538.74 799.77 531.85 784.98 524.27 770.18 517.26 755.38 512 740.58 509.34 725.78 509.75 710.98 513.15 696.18 518.97 681.38 526.25 666.58 533.78 651.78 540.29 636.99 544.7 622.19 546.28 607.39 544.77 592.59 540.41C586.59 537.99 582.02 529.9 584.13 525.66Q590.01 
            513.53 596.03 500.81 602.29 487.41 608.88 473.29 615.89 458.43 623.35 442.85 631.28 426.59 639.65 409.73 648.42 392.37 657.5 374.62 666.78 356.62 676.12 338.49 685.38 320.39 694.43 302.43 703.14 284.75 711.4 267.45 711.4 267.45 711.4 267.45" stroke-dasharray="0 6" transform="rotate(82.93939393939395, 711, 400)" opacity="0.18"></path><path d="M711.56 278.33C714.59 272.13 722.51 270.17 724.96 275Q730.75 287.34 736.13 300.14 741.16 313.46 745.94 327.31 750.59 341.71 755.21 356.64 759.94 372.07 764.9 387.94 770.2 404.19 775.94 420.73 782.18 437.46 788.97 454.28 796.33 471.06 804.21 487.7 812.58 504.08 821.34 520.09C824.56 525.75 822.01 530.5 816.58 528.61Q803.17 522.83 789.77 516.12 776.36 509.4 762.96 503.61 749.55 499.54 736.15 497.76 722.74 498.51 709.33 501.69 695.93 506.85 682.52 513.29 669.12 520.12 655.71 526.39 642.31 531.24 628.9 534 615.49 534.29 602.09 532.06C596.66 530.51 592.52 523.51 594.44 519.38Q599.83 507.54 605.4 495.11 611.21 482.07 617.33 468.41 623.81 454.16 630.69 439.34 637.95 424.02 645.59 408.27 653.56 392.17 661.8 375.83 670.23 359.35 678.74 342.82 687.23 326.37 695.6 310.07 703.74 294.03 711.56 278.33 711.56 278.33 711.56 278.33" stroke-dasharray="6 10" transform="rotate(86.54545454545455, 711, 400)" opacity="0.28"></path><path d="M711.43 289.2C714.28 283.63 721.4 281.85 723.47 286.17Q728.41 297.2 733.05 308.6 737.46 320.42 741.71 332.68 745.89 345.38 750.09 358.52 754.39 372.09 758.89 386.07 763.67 400.4 768.79 415.04 774.31 429.93 780.26 444.98 786.66 460.14 793.5 475.3 800.75 490.39 808.37 505.33C811.19 510.64 808.82 514.55 803.94 512.39Q791.92 506.54 779.89 500.46 767.87 494.83 755.85 490.28 743.83 487.32 731.8 486.29 719.78 487.29 707.76 490.23 695.74 494.76 683.71 500.38 671.69 506.46 659.67 512.32 647.65 517.3 635.62 520.85 623.6 522.56 611.58 522.25C606.69 521.54 603.01 515.67 604.75 511.65Q609.69 500.12 614.82 488.08 620.18 475.54 625.82 462.53 631.77 449.06 638.04 435.19 644.63 420.97 651.53 406.48 658.7 391.77 666.1 376.92 673.67 362.02 681.34 347.13 689.03 332.34 696.66 317.71 707.79 296.26 711.43 289.2" stroke-dasharray="6 4" transform="rotate(90.15151515151516, 711, 400)" opacity="0.71"></path><path d="M711.05 300.09C713.68 295.13 719.99 293.52 721.72 297.36Q725.9 307.09 729.88 317.12 733.73 327.48 737.48 338.17 741.22 349.22 744.99 360.63 748.86 372.39 752.89 384.5 757.14 396.92 761.66 409.64 766.48 422.61 771.62 435.79 777.12 449.14 782.97 462.59 789.16 476.1 795.66 489.61C798.06 494.45 795.87 497.71 791.55 495.58Q780.89 490.21 770.24 485.08 759.59 480.65 748.93 477.3 738.28 475.33 727.63 474.91 716.98 476.09 706.32 478.76 695.67 482.69 685.02 487.51 674.36 492.81 663.71 498.12 653.06 502.96 642.4 506.91 631.75 509.61 621.09 510.83C616.77 510.87 613.55 506.09 615.13 502.21Q619.63 491.13 624.32 479.67 629.22 467.85 634.36 455.68 639.75 443.21 645.4 430.48 651.31 417.53 657.47 404.42 663.84 391.2 670.4 377.93 677.11 364.65 683.92 351.44 690.77 338.32 697.61 325.37 707.72 306.35 711.05 300.09" stroke-dasharray="4 10" transform="rotate(93.75757575757575, 711, 400)" opacity="0.38"></path><path d="M710.45 310.96C712.81 306.63 718.32 305.21 719.76 308.54Q723.27 317 726.67 325.69 729.99 334.62 733.27 343.8 736.57 353.26 739.91 362.99 743.33 373 746.89 383.29 750.61 393.84 754.53 404.64 758.68 415.68 763.06 426.93 767.71 438.37 772.62 449.96 777.8 461.67 783.23 473.47C785.25 477.73 783.23 480.51 779.45 478.63Q770.16 474.16 760.86 470.18 751.57 466.95 742.27 464.69 732.97 463.56 723.68 463.64 714.38 464.91 705.09 467.3 695.79 470.64 686.49 474.7 677.2 479.21 667.9 483.86 658.6 488.33 649.31 492.32 640.01 495.56 630.71 497.83C626.94 498.43 624.18 494.65 625.61 490.97Q629.69 480.6 633.93 469.96 638.35 459.08 642.96 447.99 647.77 436.72 652.79 425.3 658 413.77 663.4 402.16 668.98 390.52 674.7 378.88 680.55 367.27 686.49 355.74 692.48 344.31 698.5 333.02 707.48 316.43 710.45 310.96" stroke-dasharray="8 4" transform="rotate(97.36363636363637, 711, 400)" opacity="0.38"></path><path d="M709.68 321.84C711.75 318.12 716.45 316.88 717.64 319.74Q723.41 334.39 729.09 349.57 734.88 365.72 740.89 382.49 744.09 391.23 747.42 400.18 750.92 409.31 754.58 418.63 758.43 428.13 762.47 437.78 766.7 447.57 771.12 457.48C772.76 461.07 770.93 463.5 767.7 462.02Q751.8 455.89 735.9 452.47 720 452.46 704.1 455.84 688.2 461.95 672.3 469.59 656.4 477.24 640.5 483.39C637.27 484.34 634.97 481.41 636.24 478.07Q639.88 468.66 643.64 459.1 647.55 449.42 651.61 439.62 655.82 429.73 660.18 419.78 664.69 409.79 669.34 399.79 674.11 389.79 679 379.82 683.99 369.9 689.06 360.07 694.18 350.32 699.35 340.69 707.1 326.51 709.68 321.84" stroke-dasharray="8 7" transform="rotate(100.96969696969697, 711, 400)" opacity="0.92"></path><path d="M708.81 332.71C710.54 329.61 714.45 328.57 715.41 330.94Q720.18 342.97 724.94 355.48 729.8 368.51 734.9 382.12 740.32 396.3 746.17 411.06 752.5 426.36 759.34 442.17C760.63 445.05 759.02 447.2 756.33 446.2Q743.1 442.34 729.87 440.65 716.64 441.36 703.41 444.38 690.18 449.28 676.95 455.39 663.72 461.87 650.49 467.82C647.8 468.88 645.95 466.64 647.06 463.73Q653.48 447.35 660.33 430.75 667.6 414.04 675.27 397.35 683.3 380.77 691.63 364.41 700.17 348.37 708.81 332.71 708.81 332.71 708.81 332.71" stroke-dasharray="8 6" transform="rotate(104.57575757575758, 711, 400)" opacity="0.98"></path><path d="M707.88 343.58C709.27 341.11 712.38 340.26 713.15 342.14Q716.96 351.68 720.82 361.52 724.78 371.69 728.9 382.21 733.23 393.09 737.82 404.35 742.7 415.99 747.89 427.99C748.85 430.18 747.49 432.06 745.35 431.51Q734.78 429.62 724.2 429.23 713.63 430.36 703.05 432.91 692.47 436.67 681.89 441.3 671.32 446.38 660.74 451.46C658.6 452.45 657.17 450.77 658.1 448.38Q663.47 435.01 669.11 421.61 675.03 408.24 681.2 394.94 687.61 381.78 694.23 368.81 704.44 349.82 707.88 343.58" stroke-dasharray="3 10" transform="rotate(108.18181818181817, 711, 400)" opacity="0.60"></path><path d="M706.97 354.45C708 352.59 710.32 351.95 710.9 353.36Q716.8 367.8 722.91 382.76 726.15 390.58 729.52 398.6 733.05 406.84 736.75 415.29C737.43 416.84 736.36 418.39 734.74 418.19Q718.89 418.18 703.02 421.45 687.16 427.37 671.3 434.77C669.69 435.54 668.66 434.33 669.4 432.51Q673.6 422.46 677.96 412.45 682.48 402.5 687.14 392.64 691.93 382.89 696.85 373.26 704.42 359.11 706.97 354.45" stroke-dasharray="5 7" transform="rotate(111.7878787878788, 711, 400)" opacity="0.63"></path><path d="M706.14 365.32C706.81 364.08 708.35 363.65 708.75 364.58Q712.75 374.02 716.91 383.76 721.28 393.83 725.9 404.25C726.33 405.21 725.58 406.35 724.5 406.38Q713.92 407.49 703.34 409.99 692.76 413.67 682.17 418.19C681.1 418.68 680.45 417.86 680.97 416.66Q686.88 403.49 693.07 390.51 702.82 371.55 706.14 365.32" stroke-dasharray="11 5" transform="rotate(115.39393939393939, 711, 400)" opacity="0.51"></path></g></svg>
   