<?xml version="1.0" encoding="UTF-8"?><svg id="Layer_2" xmlns="http://www.w3.org/2000/svg" viewBox="0 0 1280 1024"><defs><style>.cls-1{fill:#4d4d4d;}.cls-2{fill:#333;}.cls-3{fill:gray;}.cls-4{fill:#b3b3b3;}.cls-5{fill:#666;}</style></defs><path class="cls-2" d="M109.66,329.69h0c81.93,0,148.44,66.51,148.44,148.44v44.53H109.66v-192.97h0Z" transform="translate(-212.44 667.77) rotate(-98.03)"/><path class="cls-3" d="M767,528h107c60.71,0,110,49.29,110,110h-217c-30.36,0-55-24.64-55-55h0c0-30.36,24.64-55,55-55Z"/><rect class="cls-5" x="321.5" y="380.5" width="585" height="365" rx="178.13" ry="178.13"/><circle class="cls-5" cx="346" cy="563" r="196.5"/><circle class="cls-4" cx="216" cy="681" r="98"/><circle class="cls-4" cx="842" cy="445" r="49"/><circle class="cls-4" cx="376" cy="672" r="98"/><path class="cls-3" d="M542,656h107c60.71,0,110,49.29,110,110h-217c-30.36,0-55-24.64-55-55h0c0-30.36,24.64-55,55-55Z"/><path class="cls-3" d="M837,650h107c60.71,0,110,49.29,110,110h-217c-30.36,0-55-24.64-55-55h0c0-30.36,24.64-55,55-55Z"/><path class="cls-2" d="M486.66,313.69h0c81.93,0,148.44,66.51,148.44,148.44v44.53h-148.44v-192.97h0Z" transform="translate(404.9 -266.95) rotate(40.85)"/><path class="cls-1" d="M488.1,358.01h0c59.53,0,107.86,48.33,107.86,107.86v32.36h-107.86v-140.22h0Z" transform="translate(412.05 -250.25) rotate(40.85)"/><path d="M253.18,564.95h0c37,0,67.05,30.04,67.05,67.05v20.11h-35.45c-17.44,0-31.6-14.16-31.6-31.6v-55.56h0Z" transform="translate(-361.13 427.37) rotate(-49.15)"/><rect x="190" y="538" width="53" height="26"/><rect x="342" y="538" width="53" height="26"/></svg>